<?xml version="1.0" encoding="utf-8"?>
<!-- Generator: Adobe Illustrator 21.1.0, SVG Export Plug-In . SVG Version: 6.00 Build 0)  -->
<svg version="1.1" id="Layer_1" xmlns="http://www.w3.org/2000/svg" xmlns:xlink="http://www.w3.org/1999/xlink" x="0px" y="0px"
	 viewBox="0 0 512 512" style="enable-background:new 0 0 512 512;" xml:space="preserve">
<style type="text/css">
	.st0{fill:#AAAAAA;}
</style>
<path class="st0" d="M447.4,229.7c0.1-1.9,0.6-3.8,0.6-5.7c0-70.7-57.3-128-128-128c-47.9,0-89.2,26.7-111.2,65.7
	c-5.5-1-11.1-1.7-16.8-1.7c-41.9,0-77.2,27.1-90.3,64.6c-1.9-0.1-3.8-0.6-5.7-0.6c-53,0-96,43-96,96s43,96,96,96h320
	c53,0,96-43,96-96C512,278.1,484.9,242.8,447.4,229.7z"/>
</svg>
